<?xml version="1.0" encoding="UTF-8"?>
<svg xmlns="http://www.w3.org/2000/svg" viewBox="0 0 95.15 66">
  <defs>
    <style>
      .cls-1 {
        fill: #603813;
        stroke: #603813;
        stroke-width: .5px;
      }

      .cls-1, .cls-2 {
        stroke-miterlimit: 10;
      }

      .cls-3 {
        fill: #b89778;
      }

      .cls-2 {
        fill: none;
        stroke: #a67c52;
      }

      .cls-4 {
        fill: #977961;
      }

      .cls-5 {
        fill: #a06635;
      }
    </style>
  </defs>
  <g id="piso_de_cima" data-name="piso de cima">
    <path class="cls-5" d="m57.17,5.54s-.04-.01-.06-.03L47.58,0,0,27.5l47.58,27.5,47.57-27.5L57.17,5.54Z"/>
    <path class="cls-5" d="m57.17,5.54l-.06-.03s.04.03.06.03Z"/>
  </g>
  <g id="latesquerda">
    <polygon class="cls-4" points="0 27.5 0 38.5 47.57 66 47.58 55 0 27.5"/>
  </g>
  <g id="lateral_direita" data-name="lateral direita">
    <polygon class="cls-3" points="47.58 55 47.57 66 95.15 38.5 95.15 27.5 47.58 55"/>
  </g>
  <g id="textura">
    <path class="cls-1" d="m35.68,40.73c1.35-1.26,2.91-2.04,4.56-2.65-.33.08-.65.17-.97.25,0,0-.02-.02-.02-.02-2.56.71-4.03,2.49-5.56,4.32.64-.67,1.29-1.32,1.99-1.9Z"/>
    <path class="cls-1" d="m49.37,34.87c2.46-1.01,4.93-2.11,6.97-3.74.41-.33.81-.67,1.19-1.04.46-.45.9-.93,1.32-1.46-.42.53-.87,1.01-1.32,1.45-.38.37-.78.71-1.19,1.03-2.05,1.6-4.52,2.66-7,3.71-.6.25-1.19.5-1.78.76-2.35,1.1-4.93,1.63-7.32,2.52,2.48-.64,4.99-1.45,7.37-2.5.59-.23,1.18-.47,1.77-.71Z"/>
    <path class="cls-1" d="m31.09,45.36c.99-.83,1.8-1.78,2.59-2.73-.87.91-1.72,1.85-2.66,2.7.02.01.05.02.07.03Z"/>
    <path class="cls-1" d="m54.26,4.08c-.99.6-1.91,1.16-2.59,1.58-.59.38-1.16.74-1.71,1.08-2.74,1.86-5.06,4.45-7.75,6.5-.54.41-1.09.8-1.67,1.15-1.12.38-2.22,1.48-3.54,1.26,1.32.22,2.42-.66,3.51-1.13.57-.34,1.11-.71,1.64-1.11,2.65-2,4.94-4.58,7.82-6.41.59-.36,1.18-.73,1.77-1.09.59-.36,1.18-.73,1.77-1.09.3-.18.59-.39.87-.61-.04-.04-.09-.08-.13-.11Z"/>
    <path class="cls-1" d="m4.67,25.03c-.46.78-1.01,1.5-1.78,2.06.78-.56,1.33-1.29,1.82-2.07-.01,0-.02,0-.04.01Z"/>
    <path class="cls-1" d="m32.51,35.27c.69-.46,1.38-.84,2.06-1.36-.79.34-1.47.8-2.06,1.36Z"/>
    <path class="cls-1" d="m26.37,42.64c1.54-1.09,2.67-2.61,3.76-4.18.28-.46.57-.91.87-1.35.45-.7.95-1.31,1.51-1.84-.19.13-.38.26-.58.4-2.2,2.2-3.13,5.12-5.58,6.96,0,0,0,0,.01,0Z"/>
    <path class="cls-1" d="m37.27,25.01c-.51.3-1.03.58-1.55.85-1.59,1.01-3.35,1.23-4.89,2.33,1.76-.88,3.52-1.76,5.35-2.8.57-.32,1.13-.64,1.68-.98,1.55-1.06,3.31-1.5,4.85-2.38-1.54.66-2.86,1.54-4.3,2.28-.4.24-.78.47-1.14.69Z"/>
    <path class="cls-1" d="m44.52,17.74c-.93.56-1.81,1-2.69,1.44,1.54-1.32,3.52-1.98,5.06-3.52-.44.44-.66.66-1.05,1.05-.4.33-.84.67-1.32,1.03Z"/>
    <path class="cls-1" d="m49.87,6.15c-1.22.93-2.76,1.59-3.86,2.91.88-1.1,1.98-1.76,3.09-2.66.73-.47,1.47-.92,2.22-1.37s1.49-.9,2.24-1.35c-.61.41-1.22.81-1.83,1.23s-1.23.83-1.86,1.25Z"/>
    <path class="cls-1" d="m49.99,40.19c-.67.49-1.38.85-2.1,1.16-.72.31-1.44.58-2.11.9.61-.26,1.22-.56,1.82-.88s1.18-.69,1.74-1.07,1.11-.8,1.62-1.24c.52-.44,1.02-.89,1.49-1.37-.47.42-.93.85-1.26,1.34-.42.44-.84.83-1.21,1.16Z"/>
    <path class="cls-1" d="m32.08,34.12c1.17-.87,2.49-1.53,4.03-1.75-2.86.66-5.06,2.42-6.6,4.84.44-.66.88-1.1,1.23-1.69.42-.52.88-.99,1.34-1.4Z"/>
    <path class="cls-1" d="m51.35,2.19c-.18.11-.37.22-.55.33-.31.18-.62.46-.92.69.56-.3,1.11-.6,1.63-.88-.06-.04-.11-.08-.15-.13Z"/>
    <path class="cls-1" d="m47.5,45.74c1.37-.16,2.47-.82,3.57-1.26-1.65,1.15-3.55,1.57-5.41,2.07-.62.17-1.24.35-1.85.57.44-.44,1.1-.66,1.72-.7.63-.22,1.29-.44,1.97-.68Z"/>
    <path class="cls-1" d="m37.93,47.97c.54-.3,1.04-.64,1.49-1.08-.56.37-.96.74-1.49,1.08Z"/>
    <path class="cls-1" d="m36.82,48.7c.27-.18.54-.36.79-.54.11-.06.21-.13.31-.19-.4.22-.81.43-1.25.66.05.02.09.05.14.07Z"/>
    <path class="cls-1" d="m52.26,15.97c-.74.56-1.4,1-2.06,1.66.66-1.32,2.2-1.54,3.08-2.55.66-.47,1.32-.97,1.98-1.41-.44.22-.88.66-1.38,1.03-.5.39-1.04.8-1.62,1.27Z"/>
    <path class="cls-1" d="m50.44,23.83c.85-.48,1.29-1.58,2.17-2.24-1.32,1.76-2.86,3.74-5.28,3.96.66,0,1.32-.22,1.67-.68.53-.3.99-.65,1.43-1.04Z"/>
    <path class="cls-1" d="m44.93,6.99c.86-.36,1.08-1.24,2.18-1.46-1.76,1.1-2.64,2.64-4.4,3.74.44-.44.66-.66,1.06-1.11.38-.39.76-.78,1.15-1.17Z"/>
    <path class="cls-1" d="m37.42,25.31c-.43.34-.92.56-1.41.76-.49.19-.99.36-1.43.58.78-.33,1.49-.71,2.19-1.12,1.11-.86,2.43-1.3,3.53-1.96-.44.22-1.1.44-1.47.87-.47.28-.93.57-1.4.87Z"/>
    <path class="cls-1" d="m55.97,48.77c-1.15.33-1.81,1.21-2.91,1.65,1.54-1.1,3.52-1.98,4.84-3.3-.22.22-.66.66-.91.81-.32.29-.66.57-1.02.85Z"/>
    <path class="cls-1" d="m39.01,29.88c-1.13.51-2.23.51-3.33.73,2.2-.44,4.62-1.1,6.82-1.76-.66.22-1.32.44-1.88.59-.59.15-1.13.31-1.61.44Z"/>
    <path class="cls-1" d="m73.94,17.74c-.39.08-.75.22-1.09.56.35-.22.71-.4,1.09-.56Z"/>
    <path class="cls-1" d="m76.38,16.97c-.83.21-1.66.44-2.44.76.63-.13,1.32-.09,2.02-.42.22-.08.45-.16.68-.24-.09-.03-.17-.07-.26-.1Z"/>
    <path class="cls-1" d="m87.63,23.2c-.5.43-1.03.85-1.52,1.32-.55.53-1.05,1.12-1.38,1.87.44-.64.88-1.07,1.39-1.64.48-.56.97-1.07,1.51-1.56,0,0,0,0,0,0Z"/>
    <path class="cls-1" d="m7.79,28.25c.16-.5.6-.94.82-1.38-.66,1.1-.66,2.42-1.75,3.09.36-.55.67-1.13.93-1.71Z"/>
    <path class="cls-1" d="m27.45,19.51c-1.24.32-2.12,1.2-3.22,1.64,1.98-1.1,3.74-2.2,5.72-3.3-.44.22-.88.66-1.22.82-.42.28-.85.56-1.28.83Z"/>
    <path class="cls-1" d="m30.73,11.9c-.55,0-.99.23-1.43.67.88-.88,1.98-.88,2.9-1.46-.45.23-.91.48-1.46.8Z"/>
    <path class="cls-1" d="m65.16,31.37c-.44.34-.88.56-1.54.56,1.1-.66,2.42-1.1,3.58-2.03-.57.5-1.22.97-2.03,1.48Z"/>
    <path class="cls-1" d="m21.45,36.43c-.3.34-.74.56-1.18.56.88-.88,1.98-1.32,2.99-1.91-.53.42-1.08.83-1.82,1.34Z"/>
    <path class="cls-1" d="m39.97,47.96c-.33.25-.99.47-1.43.69.88-.66,1.76-.88,2.61-1.47-.37.23-.73.48-1.17.78Z"/>
    <path class="cls-1" d="m31.78,24.4c-1.6,1.37-3.58,1.59-5.34,2.47.88-.66,1.98-.44,2.9-1.28.56-.26,1.32-.63,2.44-1.19Z"/>
    <path class="cls-1" d="m57.09,19.67c.38-.6.8-1.22,1.3-1.77.5-.55,1.05-1.04,1.71-1.37-.44.44-.88.88-1.3,1.23-.26.27-.54.51-1.71,1.91Z"/>
    <path class="cls-1" d="m59.78,34.32c-.34.25-1,.47-1.44.69.33-.33.77-.55,1.23-.76.46-.21.94-.43,1.34-.74-.35.25-.7.5-1.12.81Z"/>
    <path class="cls-1" d="m60.53,38.31c-.88.66-1.76,1.54-2.64,2.2.22-.22.66-.66.77-.78.35-.35.74-.69,1.87-1.42Z"/>
    <path class="cls-1" d="m57.2,39.65c-.41.65-1.07,1.31-1.51,1.97.22-.22.44-.66.61-.97.2-.27.43-.5.89-1Z"/>
    <path class="cls-1" d="m46.21,12.2c.47-.51,1.13-1.17,1.57-1.61-.22.22-.22.44-.45.57-.25.26-.54.5-1.12,1.04Z"/>
    <path class="cls-1" d="m61.57,18.74c-.23.13-.65.37-.86.6.43-.67,1.26-.95,1.81-1.47-.31.26-.61.53-.95.87Z"/>
    <path class="cls-1" d="m63.47,16.76c-.96.21-1.4,1.09-2.28,1.53.22-.44.44-.66.89-.8.32-.23.68-.4,1.39-.73Z"/>
    <path class="cls-1" d="m16.65,29.89c.11-.59.76-1.04,1.2-1.48-.22.22-.22.44-.38.58-.19.23-.41.43-.82.9Z"/>
    <path class="cls-1" d="m20.88,30.26c-.61.35-1.05,1.01-1.71,1.45.22-.22.44-.66.7-.8.19-.17.44-.3,1-.65Z"/>
    <path class="cls-1" d="m28.63,38.85c-.44.78-1.1,1.44-1.76,2.1.22-.44.66-.66.8-.99.23-.27.46-.51.96-1.11Z"/>
    <path class="cls-1" d="m7.42,26.74c-.12.13-.12.35-.34.57.22-.44.22-.88.55-1.3-.06.21-.12.43-.2.73Z"/>
    <path class="cls-1" d="m26.21,40.42c.22-.35.66-.79,1.1-1.23,0,.22-.22.22-.18.36-.25.28-.54.54-.92.87Z"/>
    <path class="cls-1" d="m70.7,24.08c.24-.35.83-.3,1.31-.73-.35.21-.48.44-.86.68-.09.05-.24.03-.45.06Z"/>
    <path class="cls-1" d="m38.2,43.57c-.27.17-.74.14-.92.4.36-.52,1.03-.74,1.53-.96-.18.16-.36.33-.61.56Z"/>
    <path class="cls-1" d="m57.72,7.91q-.27.04-.49.04c.44-.22.88-.66,1.44-.71-.32.22-.64.45-.95.67Z"/>
    <path class="cls-1" d="m62.61,16.05c.5-.26,1.14-.5,1.57-.73-.21.01-.22.22-.4.24-.35.14-.71.28-1.18.49Z"/>
    <path class="cls-1" d="m33.31,29.93c-.29.02-.52.24-.74.24.45-.22,1.12-.43,1.54-.65-.28.14-.55.29-.79.41Z"/>
    <path class="cls-1" d="m71.47,30.55c-.27.05-.63.31-.83.32.32-.52.86-.79,1.53-.82-.25.17-.49.34-.7.5Z"/>
    <path class="cls-1" d="m43.8,33.3c-.36.2-.92.09-1.23.23.63-.27,1.29-.52,2.15-.5-.27.08-.54.16-.91.27Z"/>
    <path class="cls-1" d="m53.8,42.82c.13-.33.57-.77.79-1.21q0,.22-.05.41c-.21.26-.44.5-.74.8Z"/>
    <path class="cls-1" d="m63.05,34.43c-.63-.09-.71,1.02-1.61.8.47-.22.71-.45,1.12-.66.11-.07.26-.08.48-.15Z"/>
    <path class="cls-1" d="m47.82,24.19c-.7.26-1.58.48-2.24.7.44-.22.88-.22,1.31-.47.23-.09.52-.13.93-.24Z"/>
    <path class="cls-1" d="m53.3,27.1c-.25.21-.47.21-.69.43.44-.44.66-.66,1.15-1.1-.15.24-.32.47-.47.67Z"/>
    <path class="cls-1" d="m74.18,16.75c-.08.03-.34.01-.34.01.35-.17.7-.34,1.27-.36-.3.11-.6.23-.93.35Z"/>
    <path class="cls-1" d="m18.76,34.06c-.03.07-.25.07-.25.07.22-.22.44-.44.68-.53-.14.15-.27.3-.43.46Z"/>
    <path class="cls-1" d="m21.65,31.59c-.2-.04-.06.18-.32.18.12-.22.51-.43.66-.61-.1.13-.21.26-.34.44Z"/>
    <path class="cls-1" d="m17.36,19.38c-.17.01-.17.23-.39.23.44-.22.66-.44,1.09-.67-.21.13-.42.26-.71.43Z"/>
    <path class="cls-1" d="m47.07,49.46c-.4.3-.62.3-1.01.29.32-.1.65-.19,1.01-.29Z"/>
    <path class="cls-1" d="m63.95,17.66c.12-.9.45-.32.63-.35-.2.11-.4.22-.63.35Z"/>
    <path class="cls-1" d="m48.53,49.64c-.31.34-.75.56-1.19.34,0,0,.22,0,.2-.06.32-.09.65-.18.99-.27Z"/>
    <path class="cls-1" d="m26.79,14.52c-.19-.03-.19.19-.43.22.48-.28.71-.53,1.12-.76-.22.17-.44.35-.69.54Z"/>
    <path class="cls-1" d="m74.56,38.42c-.17-.1-.17.12-.39.12.44-.22.66-.44,1.06-.57-.22.14-.44.29-.67.45Z"/>
    <path class="cls-1" d="m44.54,40.97c.29-.36.75-.54,1.22-.51,0,0-.23.21-.33.27-.29.1-.58.17-.89.24Z"/>
    <path class="cls-1" d="m38.06,31.54q-.18-.04-.4-.04c.44-.22.88-.22,1.27-.2-.28.08-.56.16-.87.24Z"/>
    <path class="cls-1" d="m28.7,12.27c-.07.09-.29.09-.29.09.22-.22.44-.44.89-.53-.19.14-.39.29-.6.44Z"/>
    <path class="cls-1" d="m65.81,32.15c-.11.05-.36.05-.36.05.29-.22.79-.21,1.16-.53-.25.16-.51.32-.8.48Z"/>
    <path class="cls-1" d="m50.54,9.49c-.12,0-.34.23-.66.41.21-.14.42-.27.66-.41Z"/>
    <path class="cls-1" d="m56.25,47.98c.11-.42.33-.64.77-.64,0,0-.22.22-.19.23-.19.15-.38.28-.58.41Z"/>
    <path class="cls-1" d="m34.98,12.4c-.27.22-.44.81-.78.21.25-.07.5-.14.78-.21Z"/>
    <path class="cls-1" d="m65.51,36.47c-.28.07-.53.3-.76.52,0,0,.01-.22.02-.14.24-.13.48-.25.74-.38Z"/>
    <path class="cls-1" d="m67.46,43.21c-.1.1-.18.19-.32.3-.07.06-.33.21-.34.2-.05-.01-.04-.07-.05-.11.23-.13.45-.26.71-.4Z"/>
    <path class="cls-1" d="m43.59,22.22c.33-.34.78-.55,1.19-.56-.2,0-.24.21-.39.27-.26.11-.53.2-.8.29Z"/>
  </g>
  <g id="traços_do_piso" data-name="traços do piso">
    <path class="cls-2" d="m56.87,5.46c-15.89,9.28-31.95,18.08-47.83,27.31"/>
    <path class="cls-2" d="m66.61,11.06c-15.89,9.28-31.95,18.08-47.83,27.31"/>
    <path class="cls-2" d="m75.91,16.41c-15.89,9.28-31.95,18.08-47.83,27.31"/>
    <path class="cls-2" d="m85.65,22.01c-15.89,9.28-31.95,18.08-47.83,27.31"/>
  </g>
</svg>